<?xml version="1.0" standalone="no"?>
<!DOCTYPE svg PUBLIC "-//W3C//DTD SVG 20010904//EN"
 "http://www.w3.org/TR/2001/REC-SVG-20010904/DTD/svg10.dtd">
<svg version="1.0" xmlns="http://www.w3.org/2000/svg"
 width="1299.000000pt" height="1298.000000pt" viewBox="0 0 1299.000000 1298.000000"
 preserveAspectRatio="xMidYMid meet">

<g transform="translate(0.000000,1298.000000) scale(0.100000,-0.100000)"
fill="#000000" stroke="none">
<path d="M3565 9660 l-1390 -1390 4188 0 4187 0 0 1390 c0 765 -3 1390 -7
1390 -5 0 -632 -624 -1395 -1387 l-1388 -1388 0 1388 c0 763 -3 1387 -8 1387
-4 0 -630 -623 -1392 -1385 -762 -762 -1388 -1385 -1392 -1385 -5 0 -9 623
-10 1385 l-3 1385 -1390 -1390z"/>
<path d="M3565 6870 l-1390 -1390 1393 0 1392 0 0 1390 c0 765 -1 1390 -3
1390 -1 0 -628 -625 -1392 -1390z"/>
<path d="M6355 6870 l-1390 -1390 1398 0 1397 0 0 1390 c0 765 -3 1390 -8
1390 -4 0 -633 -625 -1397 -1390z"/>
<path d="M3565 4080 l-1390 -1390 1393 0 1392 0 0 1390 c0 765 -1 1390 -3
1390 -1 0 -628 -625 -1392 -1390z"/>
</g>
</svg>
