<?xml version="1.0" standalone="no"?>
<!DOCTYPE svg PUBLIC "-//W3C//DTD SVG 20010904//EN"
 "http://www.w3.org/TR/2001/REC-SVG-20010904/DTD/svg10.dtd">
<svg version="1.0" xmlns="http://www.w3.org/2000/svg"
 width="1298.000000pt" height="1298.000000pt" viewBox="0 0 1298.000000 1298.000000"
 preserveAspectRatio="xMidYMid meet">

<g transform="translate(0.000000,1298.000000) scale(0.100000,-0.100000)"
fill="#000000" stroke="none">
<path d="M2835 12969 c-1411 -108 -2580 -1189 -2795 -2585 -41 -265 -41 -345
-38 -4019 4 -3863 0 -3599 58 -3888 239 -1194 1158 -2136 2342 -2401 152 -34
281 -53 448 -66 188 -14 7106 -14 7291 0 597 47 1125 246 1619 613 188 140
459 412 603 605 308 414 508 887 582 1376 36 239 36 318 33 3981 -3 3344 -5
3608 -21 3715 -54 365 -138 639 -287 946 -155 321 -328 563 -584 820 -195 194
-281 266 -486 402 -336 225 -723 382 -1120 457 -278 53 0 49 -3920 51 -1988 1
-3664 -2 -3725 -7z m2125 -6099 l0 -4180 -1392 0 -1393 0 1388 1388 c763 763
1387 1390 1387 1395 0 4 -624 7 -1387 7 l-1388 0 1388 1388 c763 763 1387
1390 1387 1395 0 4 -624 7 -1387 7 l-1388 0 1390 1390 c764 765 1391 1390
1392 1390 2 0 3 -1881 3 -4180z m2790 2790 l0 -1390 -1392 0 -1393 0 1390
1390 c764 765 1391 1390 1392 1390 2 0 3 -625 3 -1390z m2790 0 l0 -1390
-1392 0 -1393 0 1390 1390 c764 765 1391 1390 1392 1390 2 0 3 -625 3 -1390z
m-2790 -2790 l0 -1390 -1392 0 -1393 0 1390 1390 c764 765 1391 1390 1392
1390 2 0 3 -625 3 -1390z"/>
</g>
</svg>
